#!OML:ASF E:\Steps\Project 1\Capture day 1\Session 2\Subject.ASF
:FULLY-SPECIFIED
:DEGREES
239
root 12.6469 17.4076 18.3047 -153.493 1.38786 182.771
lowerback -19.1572 -2.3877 -7.14715
upperback 2.0637 -1.18765 -1.26405
thorax 13.3104 -0.960642 2.29716
lowerneck -1.82861 -1.38025 -1.0859
upperneck 24.208 -0.745149 5.06455
head 7.75592 0.767128 1.915
rclavicle 6.75868e-015 -3.18055e-014
rhumerus -38.9253 -9.95297 -76.4239
rradius 44.2022
rwrist -4.90264
rhand -6.77857 -50.4734
rfingers 7.12502
rthumb 19.0838 -79.5571
lclavicle 6.75868e-015 -3.18055e-014
lhumerus -32.0655 -0.655847 76.381
lradius 40.6522
lwrist 7.14766
lhand -22.4614 -12.726
lfingers 7.12502
lthumb 3.96317 17.2169
rfemur -44.7599 11.8951 8.19317
rtibia 68.2937
rfoot -35.8377 -10.3486
rtoes -31.6266
lfemur -32.2424 -10.4915 -11.6683
ltibia 14.1339
lfoot -6.68472 5.0055
ltoes -41.2066
240
root 12.6143 17.4132 18.2832 -153.49 1.19786 182.745
lowerback -19.1499 -2.55258 -7.33953
upperback 2.09472 -1.37556 -1.16905
thorax 13.3711 -1.06935 2.45389
lowerneck -1.65681 -1.23207 -1.40529
upperneck 23.8631 -0.586565 5.29065
head 7.60468 0.813051 2.04602
rclavicle 1.59028e-014 -1.27222e-014
rhumerus -39.1683 -10.0082 -76.0726
rradius 44.2086
rwrist -5.01019
rhand -6.5648 -49.6548
rfingers 7.12502
rthumb 19.2893 -78.7182
lclavicle 1.59028e-014 -1.27222e-014
lhumerus -32.2789 -0.516299 76.5846
lradius 41.2383
lwrist 7.31467
lhand -22.3986 -12.8302
lfingers 7.12502
lthumb 4.02384 17.1116
rfemur -44.5887 11.6312 8.14128
rtibia 68.1965
rfoot -35.5193 -10.541
rtoes -32.491
lfemur -32.0201 -10.7228 -11.8036
ltibia 13.8087
lfoot -6.46608 4.92183
ltoes -41.0413
241
root 12.5822 17.4193 18.2613 -153.619 0.956454 182.772
lowerback -18.3068 -2.38872 -7.39158
upperback 1.78193 -1.21007 -1.31053
thorax 12.4944 -0.954061 2.40258
lowerneck -1.53976 -1.42524 -0.81699
upperneck 23.9755 -0.849094 5.22613
head 7.62914 0.754376 1.91025
rclavicle -1.19271e-014 2.38542e-014
rhumerus -40.3057 -10.9232 -75.6146
rradius 44.3089
rwrist -5.19394
rhand -6.25653 -49.4291
rfingers 7.12502
rthumb 19.5857 -78.4625
lclavicle -1.19271e-014 2.38542e-014
lhumerus -32.6782 -1.36255 76.7089
lradius 41.8139
lwrist 7.93156
lhand -21.8995 -12.0305
lfingers 7.12502
lthumb 4.50585 17.9016
rfemur -44.3086 11.4774 8.19065
rtibia 68.3134
rfoot -35.4213 -10.5455
rtoes -33.4359
lfemur -31.6543 -10.8304 -11.942
ltibia 13.4633
lfoot -6.22667 4.72207
ltoes -40.3191
242
root 12.5511 17.4239 18.242 -153.665 0.77807 182.846
lowerback -18.3235 -2.52345 -7.45234
upperback 1.82461 -1.38775 -1.2193
thorax 12.5763 -1.04993 2.48462
lowerneck -1.43324 -1.36262 -0.883316
upperneck 23.8872 -0.734841 5.08449
head 7.57674 0.783119 1.8795
rclavicle -1.82882e-014 -1.74931e-014
rhumerus -40.4242 -11.0861 -75.2509
rradius 44.057
rwrist -5.55771
rhand -6.47174 -50.2373
rfingers 7.12502
rthumb 19.3788 -79.2917
lclavicle -1.82882e-014 -1.74931e-014
lhumerus -32.7566 -1.17746 76.886
lradius 41.8538
lwrist 7.47331
lhand -22.5778 -12.3598
lfingers 7.12502
lthumb 3.85081 17.5852
rfemur -44.1844 11.3179 8.24164
rtibia 68.3997
rfoot -35.051 -10.4887
rtoes -33.9208
lfemur -31.398 -10.8202 -12.0191
ltibia 13.1397
lfoot -6.10315 4.55268
ltoes -40.3742
243
root 12.5191 17.4238 18.2244 -153.563 0.777944 182.954
lowerback -18.4128 -2.47593 -7.46676
upperback 1.78663 -1.30531 -1.25804
thorax 12.5756 -1.00808 2.4731
lowerneck -1.24318 -1.4507 -0.782233
upperneck 23.7275 -0.884187 5.178
head 7.49441 0.723401 1.87924
rclavicle -9.54166e-015 -9.54166e-015
rhumerus -40.7579 -11.8468 -74.7943
rradius 43.7259
rwrist -5.63002
rhand -6.70942 -50.8226
rfingers 7.12502
rthumb 19.1503 -79.8998
lclavicle -9.54166e-015 -9.54166e-015
lhumerus -32.7733 -1.41819 76.9409
lradius 42.0372
lwrist 7.38003
lhand -22.8073 -12.343
lfingers 7.12502
lthumb 3.62919 17.6058
rfemur -44.3306 11.2271 8.19884
rtibia 68.5145
rfoot -34.4498 -10.3725
rtoes -33.9699
lfemur -31.2906 -10.9056 -11.9988
ltibia 12.8323
lfoot -6.00659 4.66405
ltoes -40.571
244
root 12.4881 17.4225 18.2063 -153.486 0.787301 183.111
lowerback -18.6007 -2.4812 -7.47112
upperback 1.90145 -1.30263 -1.19386
thorax 12.8198 -1.02251 2.5406
lowerneck -1.30572 -1.43705 -0.995299
upperneck 23.4624 -0.942677 5.42327
head 7.42054 0.676074 1.9858
rclavicle 8.74653e-015 1.59028e-015
rhumerus -40.7396 -12.4381 -74.3703
rradius 43.4388
rwrist -5.71198
rhand -6.63005 -51.1269
rfingers 7.12502
rthumb 19.2266 -80.1965
lclavicle 8.74653e-015 1.59028e-015
lhumerus -32.4407 -1.20745 77.0073
lradius 42.237
lwrist 7.65128
lhand -22.3014 -12.2508
lfingers 7.12502
lthumb 4.11773 17.6892
rfemur -44.5017 11.1793 8.22535
rtibia 68.7342
rfoot -33.8546 -10.2802
rtoes -34.3318
lfemur -31.1946 -10.9784 -11.937
ltibia 12.6321
lfoot -5.89837 4.77733
ltoes -40.5841
245
root 12.4593 17.4229 18.1887 -153.614 0.62712 183.281
lowerback -18.5195 -2.48034 -7.42811
upperback 2.02682 -1.3293 -1.13971
thorax 12.9202 -1.04425 2.56698
lowerneck -1.39379 -1.43901 -1.00606
upperneck 23.3624 -0.985112 5.51437
head 7.40473 0.653624 2.0123
rclavicle 1.82882e-014 5.56597e-014
rhumerus -40.8016 -12.9378 -74.0146
rradius 43.2165
rwrist -6.13326
rhand -6.47473 -51.0761
rfingers 7.12502
rthumb 19.3759 -80.1307
lclavicle 1.82882e-014 5.56597e-014
lhumerus -32.166 -1.21393 77.1139
lradius 42.0721
lwrist 7.23198
lhand -22.6896 -12.5282
lfingers 7.12502
lthumb 3.74281 17.4187
rfemur -44.4504 11.1406 8.41271
rtibia 68.9846
rfoot -33.2534 -10.3816
rtoes -35.1342
lfemur -30.9677 -11.0032 -11.8997
ltibia 12.542
lfoot -5.95435 4.63998
ltoes -40.202
246
root 12.4313 17.4237 18.1755 -153.741 0.514002 183.37
lowerback -18.3267 -2.4997 -7.46112
upperback 2.07463 -1.37065 -1.1164
thorax 12.8688 -1.06848 2.60218
lowerneck -1.56011 -1.45783 -0.96839
upperneck 23.4949 -1.02209 5.55125
head 7.47966 0.648908 2.01909
rclavicle 1.35174e-014 -3.18055e-014
rhumerus -40.9451 -13.2662 -73.6541
rradius 42.8777
rwrist -6.35444
rhand -6.45812 -50.9374
rfingers 7.12502
rthumb 19.3919 -79.9905
lclavicle 1.35174e-014 -3.18055e-014
lhumerus -31.9493 -1.10602 77.1118
lradius 41.8976
lwrist 7.27542
lhand -22.6291 -11.9967
lfingers 7.12502
lthumb 3.80124 17.9492
rfemur -44.4971 11.1112 8.48158
rtibia 69.3685
rfoot -32.6658 -10.3687
rtoes -35.2309
lfemur -30.7988 -11.014 -11.9461
ltibia 12.508
lfoot -6.17457 4.52564
ltoes -39.984
247
root 12.4028 17.4205 18.1608 -153.71 0.686141 183.404
lowerback -18.4827 -2.43273 -7.50649
upperback 2.15768 -1.23257 -1.23181
thorax 13.0413 -1.00718 2.53435
lowerneck -1.71998 -1.52258 -0.737459
upperneck 23.5742 -1.14549 5.59474
head 7.53833 0.618035 1.98788
rclavicle 7.15625e-015 5.24792e-014
rhumerus -41.0805 -13.818 -73.3934
rradius 42.5542
rwrist -6.1774
rhand -6.82845 -51.475
rfingers 7.12502
rthumb 19.0358 -80.5634
lclavicle 7.15625e-015 5.24792e-014
lhumerus -31.5105 -1.13728 77.0224
lradius 41.6243
lwrist 7.39485
lhand -22.4175 -12.0217
lfingers 7.12502
lthumb 4.00561 17.9204
rfemur -44.8523 11.2169 8.31306
rtibia 69.868
rfoot -32.1274 -10.155
rtoes -34.5842
lfemur -30.7146 -10.8717 -12.1062
ltibia 12.4601
lfoot -6.35121 4.47733
ltoes -39.8148
248
root 12.3752 17.4158 18.1484 -153.624 0.906412 183.468
lowerback -18.3301 -2.50803 -7.76421
upperback 1.9412 -1.32195 -1.05648
thorax 12.7234 -1.06085 2.85862
lowerneck -1.55152 -1.48925 -1.05513
upperneck 23.8556 -1.01203 5.5395
head 7.59838 0.669949 2.04023
rclavicle -2.38542e-015 -3.33958e-014
rhumerus -41.4975 -13.6839 -72.8274
rradius 42.3751
rwrist -6.12092
rhand -7.03155 -52.3803
rfingers 7.12502
rthumb 18.8405 -81.4878
lclavicle -2.38542e-015 -3.33958e-014
lhumerus -31.732 -0.536141 77.2301
lradius 41.324
lwrist 7.04918
lhand -22.3631 -12.3221
lfingers 7.12502
lthumb 4.05814 17.619
rfemur -45.3822 11.457 8.14768
rtibia 70.4899
rfoot -31.5809 -10.2914
rtoes -34.5852
lfemur -30.7274 -10.7684 -12.1955
ltibia 12.512
lfoot -6.51458 4.4454
ltoes -39.2545
249
root 12.349 17.4126 18.1399 -153.56 1.14468 183.595
lowerback -18.5519 -2.3638 -7.73593
upperback 2.07087 -1.09094 -1.17753
thorax 12.9744 -0.956348 2.76839
lowerneck -1.7458 -1.55459 -0.756024
upperneck 23.9063 -1.13778 5.52737
head 7.65347 0.636659 1.97786
rclavicle 2.06736e-014 7.15625e-014
rhumerus -41.4484 -14.5143 -72.6132
rradius 42.0434
rwrist -5.8671
rhand -6.87617 -52.6278
rfingers 7.12502
rthumb 18.9899 -81.7208
lclavicle 2.06736e-014 7.15625e-014
lhumerus -31.1331 -0.53229 77.1274
lradius 40.7598
lwrist 6.62015
lhand -22.54 -12.4802
lfingers 7.12502
lthumb 3.8873 17.4641
rfemur -45.9751 11.7254 8.07603
rtibia 71.1542
rfoot -30.9951 -10.693
rtoes -34.924
lfemur -30.7956 -10.7815 -12.1647
ltibia 12.6838
lfoot -6.72882 4.61858
ltoes -38.639
250
root 12.322 17.4096 18.1306 -153.502 1.36644 183.733
lowerback -18.7452 -2.34597 -7.68712
upperback 2.10805 -1.05414 -1.20008
thorax 13.1252 -0.939877 2.72211
lowerneck -1.53749 -1.4995 -0.648919
upperneck 23.7974 -1.04099 5.41484
head 7.57561 0.677075 1.92577
rclavicle -1.66979e-014 -3.33958e-014
rhumerus -41.451 -14.7165 -72.3882
rradius 41.6319
rwrist -5.6641
rhand -6.60824 -52.2564
rfingers 7.12502
rthumb 19.2476 -81.3239
lclavicle -1.66979e-014 -3.33958e-014
lhumerus -30.8155 -0.181832 77.0184
lradius 40.1132
lwrist 6.02925
lhand -22.9744 -12.8916
lfingers 7.12502
lthumb 3.46781 17.0599
rfemur -46.5323 11.8591 8.05451
rtibia 71.7461
rfoot -30.5572 -10.8094
rtoes -34.1167
lfemur -30.8293 -10.7616 -12.1472
ltibia 12.7889
lfoot -6.91962 4.79618
ltoes -38.1108
251
root 12.294 17.4078 18.1198 -153.502 1.50842 183.889
lowerback -18.7065 -2.35045 -7.62541
upperback 2.14575 -1.08913 -1.14651
thorax 13.1491 -0.958246 2.73632
lowerneck -1.64753 -1.4188 -0.684437
upperneck 23.8356 -0.920197 5.32864
head 7.60378 0.721604 1.91205
rclavicle 1.19271e-014 5.24792e-014
rhumerus -41.427 -14.6968 -72.1614
rradius 41.3037
rwrist -5.49343
rhand -6.4303 -52.0507
rfingers 7.12502
rthumb 19.4187 -81.1011
lclavicle 1.19271e-014 5.24792e-014
lhumerus -30.5111 0.325195 76.9761
lradius 39.5092
lwrist 5.4869
lhand -23.2802 -12.7234
lfingers 7.12502
lthumb 3.17254 17.2327
rfemur -46.9904 11.9207 8.14597
rtibia 72.3537
rfoot -30.26 -10.7961
rtoes -32.8156
lfemur -30.7848 -10.6215 -12.1526
ltibia 12.8191
lfoot -7.01445 4.79944
ltoes -37.9599
252
root 12.2693 17.409 18.11 -153.606 1.72363 183.992
lowerback -18.3361 -2.28333 -7.66275
upperback 2.04919 -1.03305 -1.14347
thorax 12.8138 -0.923152 2.78663
lowerneck -1.5447 -1.45028 -0.713566
upperneck 23.9266 -0.948151 5.37593
head 7.61698 0.719051 1.9333
rclavicle -1.59028e-015 5.08889e-014
rhumerus -41.7048 -14.8108 -71.8845
rradius 41.0313
rwrist -5.17012
rhand -6.39621 -51.8191
rfingers 7.12502
rthumb 19.4514 -80.8662
lclavicle -1.59028e-015 5.08889e-014
lhumerus -30.5 0.647612 76.9494
lradius 39.0573
lwrist 5.28778
lhand -23.2879 -12.1199
lfingers 7.12502
lthumb 3.16505 17.8364
rfemur -47.3412 12.0462 8.22754
rtibia 72.9697
rfoot -30.0369 -10.8543
rtoes -31.6821
lfemur -30.614 -10.3588 -12.2727
ltibia 12.8681
lfoot -7.03742 4.7139
ltoes -38.0405
253
root 12.2484 17.411 18.1121 -153.569 1.72376 183.97
lowerback -18.5092 -2.34755 -7.76449
upperback 2.21277 -1.06818 -1.16498
thorax 13.1131 -0.959317 2.80239
lowerneck -1.36212 -1.37369 -0.657835
upperneck 23.6039 -0.882843 5.45022
head 7.47447 0.741123 1.94403
rclavicle -2.38542e-015 -2.70347e-014
rhumerus -41.4229 -15.1992 -71.7948
rradius 40.6449
rwrist -4.6896
rhand -6.31627 -51.6028
rfingers 7.12502
rthumb 19.5283 -80.642
lclavicle -2.38542e-015 -2.70347e-014
lhumerus -29.9532 1.03685 76.8623
lradius 38.4825
lwrist 5.12106
lhand -23.4812 -11.748
lfingers 7.12502
lthumb 2.97838 18.211
rfemur -47.9089 11.8867 8.27118
rtibia 73.7337
rfoot -29.9558 -11.0652
rtoes -30.6392
lfemur -30.793 -10.2456 -12.4055
ltibia 13.0887
lfoot -6.97895 4.59178
ltoes -39.1552
